<?xml version="1.0" encoding="UTF-8"?>
<svg xmlns="http://www.w3.org/2000/svg" xmlns:xlink="http://www.w3.org/1999/xlink" width="146px" height="26px" viewBox="0 0 146 26" version="1.1">
<g id="surface1">
<path style=" stroke:none;fill-rule:nonzero;fill:rgb(99.215686%,99.607843%,99.215686%);fill-opacity:1;" d="M 0 0 C 48.179688 0 96.359375 0 146 0 C 146 8.578125 146 17.160156 146 26 C 97.820312 26 49.640625 26 0 26 C 0 17.421875 0 8.839844 0 0 Z M 0 0 "/>
<path style=" stroke:none;fill-rule:nonzero;fill:rgb(40.392157%,67.058824%,96.862745%);fill-opacity:1;" d="M 103.226562 3.707031 C 106.113281 4.207031 107.824219 4.886719 109.144531 5.777344 C 109.832031 7.230469 109.277344 8.417969 106.3125 9.628906 C 103.507812 10.644531 100.3125 11.554688 96.859375 12.382812 C 96.421875 12.492188 95.984375 12.601562 95.535156 12.714844 C 86.644531 14.949219 86.644531 14.949219 81.140625 14.835938 C 80.117188 14.78125 80.117188 14.78125 78.433594 14.582031 C 75.9375 13.269531 77.582031 11.496094 78.828125 10.132812 C 79.378906 9.628906 79.378906 9.628906 80.121094 9.144531 C 80.863281 8.675781 80.863281 8.675781 81.011719 8.179688 C 81.699219 6.90625 85.554688 5.492188 88.992188 4.695312 C 93.242188 3.796875 97.921875 3.113281 103.226562 3.707031 Z M 103.226562 3.707031 "/>
<path style=" stroke:none;fill-rule:nonzero;fill:rgb(96.470588%,68.235294%,6.666667%);fill-opacity:1;" d="M 85.996094 2.277344 C 88.167969 2.734375 90.375 3.332031 91.058594 4.097656 C 91.101562 4.199219 91.144531 4.296875 91.191406 4.402344 C 90.921875 4.457031 90.652344 4.507812 90.378906 4.5625 C 82.746094 6.175781 78.71875 9.144531 77.195312 11.789062 C 76.804688 12.773438 76.835938 13.640625 77.960938 14.582031 C 71.839844 13.007812 69 10.148438 68.445312 7.835938 C 68.160156 6.007812 68.550781 4.324219 72.828125 2.871094 C 76.742188 1.726562 81.046875 1.488281 85.996094 2.277344 Z M 85.996094 2.277344 "/>
<path style=" stroke:none;fill-rule:nonzero;fill:rgb(81.960784%,32.156863%,83.137255%);fill-opacity:1;" d="M 68.304688 3.472656 C 69.929688 3.714844 69.929688 3.714844 70.308594 3.96875 C 70.417969 4.320312 70.171875 4.507812 69.722656 4.832031 C 66.980469 7.328125 69.800781 10.398438 73.480469 12.691406 C 74.617188 13.320312 75.695312 13.816406 77.488281 14.308594 C 77.332031 14.222656 77.175781 14.136719 77.015625 14.050781 C 75.003906 12.21875 77.855469 10.074219 80.324219 8.390625 C 80.636719 8.527344 80.949219 8.664062 81.269531 8.804688 C 80.996094 9.050781 80.996094 9.050781 80.472656 9.335938 C 77.851562 10.941406 77.03125 12.84375 78.433594 14.582031 C 79.679688 14.628906 80.929688 14.671875 82.214844 14.71875 C 82.214844 14.765625 82.214844 14.808594 82.214844 14.855469 C 76.351562 14.964844 71.835938 14.0625 67.511719 12.984375 C 60.988281 11.304688 55.140625 9.464844 54.171875 6.847656 C 54.007812 5.800781 54.515625 4.976562 56.699219 4.128906 C 59.992188 3.21875 64.066406 3.0625 68.304688 3.472656 Z M 68.304688 3.472656 "/>
<path style=" stroke:none;fill-rule:nonzero;fill:rgb(15.686275%,13.72549%,14.901961%);fill-opacity:1;" d="M 43.941406 16.234375 C 51.972656 16.234375 51.972656 16.234375 53.863281 16.78125 C 54.09375 17.191406 54.09375 17.191406 54.082031 17.664062 C 54.078125 17.835938 54.078125 18.003906 54.078125 18.179688 C 54.066406 18.359375 54.054688 18.535156 54.042969 18.71875 C 54.039062 18.894531 54.039062 19.074219 54.039062 19.257812 C 53.996094 20.578125 53.996094 20.578125 52.917969 21.046875 C 50.078125 21.324219 46.9375 21.183594 43.941406 21.183594 C 43.941406 19.550781 43.941406 17.917969 43.941406 16.234375 Z M 43.941406 16.234375 "/>
<path style=" stroke:none;fill-rule:nonzero;fill:rgb(20%,16.470588%,17.647059%);fill-opacity:1;" d="M 128.519531 16.042969 C 129.003906 16.046875 129.492188 16.046875 129.996094 16.050781 C 131.324219 16.09375 132.128906 16.160156 133.242188 16.371094 C 133.953125 16.785156 133.773438 17.210938 133.761719 17.664062 C 133.761719 17.765625 133.761719 17.867188 133.757812 17.96875 C 133.757812 18.289062 133.75 18.613281 133.746094 18.933594 C 133.742188 19.148438 133.738281 19.367188 133.738281 19.585938 C 133.734375 20.117188 133.726562 20.652344 133.714844 21.183594 C 132.46875 21.183594 131.21875 21.183594 129.933594 21.183594 C 129.933594 19.777344 129.933594 18.371094 129.933594 16.921875 C 129.15625 16.921875 128.375 16.921875 127.574219 16.921875 C 127.574219 18.328125 127.574219 19.734375 127.574219 21.183594 C 126.324219 21.183594 125.078125 21.183594 123.792969 21.183594 C 123.746094 20.546875 123.710938 19.914062 123.6875 19.277344 C 123.679688 19.058594 123.667969 18.84375 123.648438 18.625 C 123.628906 18.316406 123.617188 18.003906 123.609375 17.691406 C 123.597656 17.597656 123.589844 17.5 123.578125 17.398438 C 123.578125 16.933594 123.683594 16.6875 124.664062 16.308594 C 126.011719 16.027344 126.871094 16.03125 128.519531 16.042969 Z M 128.519531 16.042969 "/>
<path style=" stroke:none;fill-rule:nonzero;fill:rgb(18.823529%,15.686275%,16.862745%);fill-opacity:1;" d="M 31.183594 16.234375 C 32.433594 16.234375 33.679688 16.234375 34.964844 16.234375 C 34.964844 16.914062 34.964844 17.59375 34.964844 18.296875 C 35.277344 18.296875 35.589844 18.296875 35.910156 18.296875 C 36.046875 18.160156 36.046875 18.160156 36.1875 18.019531 C 37.410156 16.8125 37.410156 16.8125 38.273438 16.234375 C 39.363281 16.234375 40.453125 16.234375 41.578125 16.234375 C 41.484375 16.316406 41.386719 16.402344 41.285156 16.488281 C 40.878906 16.859375 40.515625 17.234375 40.160156 17.609375 C 40.0625 17.703125 39.964844 17.796875 39.863281 17.894531 C 39.027344 19.019531 41.121094 20.15625 42.523438 21.183594 C 41.277344 21.183594 40.03125 21.183594 38.746094 21.183594 C 38.589844 21.058594 38.4375 20.929688 38.277344 20.796875 C 38.070312 20.632812 37.863281 20.46875 37.652344 20.300781 C 37.449219 20.136719 37.246094 19.972656 37.035156 19.800781 C 36.820312 19.667969 36.605469 19.535156 36.382812 19.398438 C 35.914062 19.351562 35.445312 19.304688 34.964844 19.257812 C 34.964844 19.894531 34.964844 20.53125 34.964844 21.183594 C 33.71875 21.183594 32.46875 21.183594 31.183594 21.183594 C 31.183594 19.550781 31.183594 17.917969 31.183594 16.234375 Z M 31.183594 16.234375 "/>
<path style=" stroke:none;fill-rule:nonzero;fill:rgb(13.72549%,12.156863%,12.54902%);fill-opacity:1;" d="M 97.804688 16.234375 C 98.898438 16.234375 99.988281 16.234375 101.113281 16.234375 C 101.113281 16.914062 101.113281 17.59375 101.113281 18.296875 C 102.203125 18.296875 103.296875 18.296875 104.421875 18.296875 C 104.421875 17.617188 104.421875 16.933594 104.421875 16.234375 C 105.511719 16.234375 106.605469 16.234375 107.726562 16.234375 C 107.726562 17.867188 107.726562 19.5 107.726562 21.183594 C 106.636719 21.183594 105.546875 21.183594 104.421875 21.183594 C 104.421875 20.550781 104.421875 19.914062 104.421875 19.257812 C 103.328125 19.257812 102.238281 19.257812 101.113281 19.257812 C 101.113281 19.894531 101.113281 20.53125 101.113281 21.183594 C 100.023438 21.183594 98.929688 21.183594 97.804688 21.183594 C 97.804688 19.550781 97.804688 17.917969 97.804688 16.234375 Z M 97.804688 16.234375 "/>
<path style=" stroke:none;fill-rule:nonzero;fill:rgb(14.509804%,13.333333%,13.333333%);fill-opacity:1;" d="M 68.039062 16.042969 C 68.527344 16.042969 69.011719 16.042969 69.515625 16.039062 C 71.109375 16.105469 71.660156 16.167969 72.765625 16.507812 C 72.933594 16.882812 72.984375 17.199219 72.949219 17.570312 C 72.945312 17.675781 72.941406 17.777344 72.941406 17.882812 C 72.929688 18.214844 72.90625 18.542969 72.882812 18.871094 C 72.871094 19.097656 72.863281 19.320312 72.855469 19.542969 C 72.835938 20.089844 72.800781 20.636719 72.765625 21.183594 C 71.671875 21.183594 70.582031 21.183594 69.457031 21.183594 C 69.457031 19.777344 69.457031 18.371094 69.457031 16.921875 C 68.519531 16.921875 67.585938 16.921875 66.621094 16.921875 C 66.621094 18.328125 66.621094 19.734375 66.621094 21.183594 C 65.53125 21.183594 64.4375 21.183594 63.3125 21.183594 C 63.265625 20.527344 63.234375 19.867188 63.210938 19.210938 C 63.199219 18.984375 63.1875 18.761719 63.171875 18.539062 C 63.148438 18.214844 63.136719 17.894531 63.128906 17.570312 C 63.113281 17.421875 63.113281 17.421875 63.101562 17.269531 C 63.097656 16.574219 63.097656 16.574219 64.183594 16.238281 C 65.523438 16.050781 66.558594 16.039062 68.039062 16.042969 Z M 68.039062 16.042969 "/>
<path style=" stroke:none;fill-rule:nonzero;fill:rgb(17.254902%,14.901961%,14.901961%);fill-opacity:1;" d="M 92.609375 16.09375 C 94.113281 16.320312 94.113281 16.320312 94.972656 16.644531 C 95.117188 17.09375 95.117188 17.09375 94.972656 17.472656 C 93.878906 17.472656 92.789062 17.472656 91.664062 17.472656 C 91.507812 17.335938 91.351562 17.199219 91.191406 17.058594 C 90.410156 17.011719 89.632812 16.96875 88.828125 16.921875 C 88.828125 17.328125 88.828125 17.738281 88.828125 18.160156 C 89.492188 18.148438 90.152344 18.140625 90.835938 18.132812 C 92.152344 18.117188 92.945312 18.140625 94.152344 18.296875 C 95.398438 18.714844 95.226562 19.148438 95.175781 19.671875 C 95.179688 19.773438 95.183594 19.871094 95.1875 19.972656 C 95.171875 20.371094 95.121094 20.691406 94.457031 21.042969 C 93.054688 21.261719 91.820312 21.238281 90.246094 21.238281 C 89.660156 21.238281 89.078125 21.238281 88.472656 21.238281 C 86.9375 21.183594 86.9375 21.183594 86.027344 21.011719 C 85.113281 20.582031 85.4375 20.167969 85.519531 19.671875 C 86.613281 19.671875 87.703125 19.671875 88.828125 19.671875 C 88.984375 19.898438 89.140625 20.125 89.300781 20.359375 C 90.082031 20.40625 90.859375 20.449219 91.664062 20.496094 C 91.664062 20.042969 91.664062 19.589844 91.664062 19.121094 C 89.886719 19.140625 89.886719 19.140625 88.109375 19.160156 C 86.9375 19.121094 86.9375 19.121094 86.089844 18.984375 C 85.1875 18.550781 85.296875 18.101562 85.3125 17.609375 C 85.304688 17.507812 85.296875 17.410156 85.285156 17.304688 C 85.289062 16.859375 85.304688 16.582031 86.320312 16.238281 C 88.363281 15.972656 90.421875 16.011719 92.609375 16.09375 Z M 92.609375 16.09375 "/>
<path style=" stroke:none;fill-rule:nonzero;fill:rgb(16.470588%,15.294118%,16.862745%);fill-opacity:1;" d="M 75.597656 16.234375 C 78.09375 16.234375 80.589844 16.234375 83.160156 16.234375 C 83.160156 16.503906 83.160156 16.777344 83.160156 17.058594 C 81.910156 17.058594 80.664062 17.058594 79.378906 17.058594 C 79.378906 17.464844 79.378906 17.875 79.378906 18.296875 C 80.625 18.296875 81.875 18.296875 83.160156 18.296875 C 83.160156 18.570312 83.160156 18.839844 83.160156 19.121094 C 81.910156 19.121094 80.664062 19.121094 79.378906 19.121094 C 79.378906 19.484375 79.378906 19.847656 79.378906 20.222656 C 80.625 20.222656 81.875 20.222656 83.160156 20.222656 C 83.160156 20.539062 83.160156 20.859375 83.160156 21.183594 C 80.664062 21.183594 78.167969 21.183594 75.597656 21.183594 C 75.597656 19.550781 75.597656 17.917969 75.597656 16.234375 Z M 75.597656 16.234375 "/>
<path style=" stroke:none;fill-rule:nonzero;fill:rgb(16.470588%,17.647059%,20.392157%);fill-opacity:1;" d="M 56.699219 16.234375 C 57.945312 16.234375 59.195312 16.234375 60.480469 16.234375 C 60.480469 17.867188 60.480469 19.5 60.480469 21.183594 C 59.230469 21.183594 57.984375 21.183594 56.699219 21.183594 C 56.699219 19.550781 56.699219 17.917969 56.699219 16.234375 Z M 56.699219 16.234375 "/>
<path style=" stroke:none;fill-rule:nonzero;fill:rgb(13.72549%,12.156863%,12.54902%);fill-opacity:1;" d="M 117.652344 16.234375 C 118.742188 16.234375 119.832031 16.234375 120.957031 16.234375 C 120.957031 17.867188 120.957031 19.5 120.957031 21.183594 C 119.867188 21.183594 118.773438 21.183594 117.652344 21.183594 C 117.652344 19.550781 117.652344 17.917969 117.652344 16.234375 Z M 117.652344 16.234375 "/>
<path style=" stroke:none;fill-rule:nonzero;fill:rgb(88.627451%,93.72549%,94.901961%);fill-opacity:1;" d="M 47.25 16.921875 C 48.183594 16.921875 49.121094 16.921875 50.085938 16.921875 C 50.085938 18.101562 50.085938 19.28125 50.085938 20.496094 C 49.148438 20.496094 48.214844 20.496094 47.25 20.496094 C 47.25 19.316406 47.25 18.136719 47.25 16.921875 Z M 47.25 16.921875 "/>
<path style=" stroke:none;fill-rule:nonzero;fill:rgb(72.156863%,53.333333%,94.117647%);fill-opacity:1;" d="M 80.324219 8.390625 C 80.636719 8.527344 80.949219 8.664062 81.269531 8.804688 C 80.996094 9.050781 80.996094 9.050781 80.472656 9.335938 C 77.851562 10.941406 77.03125 12.84375 78.433594 14.582031 C 79.679688 14.628906 80.929688 14.671875 82.214844 14.71875 C 82.214844 14.765625 82.214844 14.808594 82.214844 14.855469 C 76.96875 14.953125 73.058594 14.261719 68.984375 13.34375 C 68.671875 13.207031 68.359375 13.070312 68.039062 12.929688 C 70.089844 13.210938 71.933594 13.578125 73.824219 13.941406 C 75.023438 14.152344 76.175781 14.304688 77.488281 14.445312 C 77.253906 14.28125 77.253906 14.28125 77.015625 14.117188 C 75.207031 12.210938 77.753906 10.144531 80.324219 8.390625 Z M 80.324219 8.390625 "/>
<path style=" stroke:none;fill-rule:nonzero;fill:rgb(67.058824%,58.823529%,80.784314%);fill-opacity:1;" d="M 80.324219 8.390625 C 80.636719 8.527344 80.949219 8.664062 81.269531 8.804688 C 80.84375 9.082031 80.410156 9.359375 79.957031 9.628906 C 78.214844 10.871094 77.347656 12.285156 77.015625 13.617188 C 76.859375 13.617188 76.703125 13.617188 76.542969 13.617188 C 76.140625 11.777344 77.867188 10.070312 80.324219 8.390625 Z M 80.324219 8.390625 "/>
<path style=" stroke:none;fill-rule:nonzero;fill:rgb(20.392157%,17.254902%,17.254902%);fill-opacity:1;" d="M 112.660156 20.195312 C 113.871094 20.222656 113.871094 20.222656 114.816406 20.496094 C 114.5625 20.984375 114.5625 20.984375 113.871094 21.183594 C 112.6875 21.203125 112.6875 21.203125 111.507812 21.183594 C 111.035156 21.046875 111.035156 21.046875 110.976562 20.703125 C 111.054688 20.246094 111.09375 20.230469 112.660156 20.195312 Z M 112.660156 20.195312 "/>
<path style=" stroke:none;fill-rule:nonzero;fill:rgb(97.647059%,59.607843%,9.803922%);fill-opacity:1;" d="M 75.597656 2.199219 C 75.910156 2.246094 76.222656 2.292969 76.542969 2.339844 C 76.101562 2.464844 76.101562 2.464844 75.648438 2.589844 C 75.261719 2.699219 74.875 2.808594 74.476562 2.921875 C 74.09375 3.03125 73.710938 3.140625 73.3125 3.253906 C 72.40625 3.539062 71.859375 3.769531 71.347656 4.128906 C 71.035156 4.128906 70.722656 4.128906 70.402344 4.128906 C 71.113281 3.390625 72.84375 2.871094 74.652344 2.339844 C 74.964844 2.292969 75.277344 2.246094 75.597656 2.199219 Z M 75.597656 2.199219 "/>
<path style=" stroke:none;fill-rule:nonzero;fill:rgb(54.117647%,60.392157%,90.588235%);fill-opacity:1;" d="M 80.324219 8.390625 C 80.636719 8.527344 80.949219 8.664062 81.269531 8.804688 C 80.949219 9.117188 80.949219 9.117188 80.382812 9.449219 C 80.105469 9.617188 80.105469 9.617188 79.824219 9.785156 C 79.605469 9.914062 79.605469 9.914062 79.378906 10.042969 C 78.847656 9.585938 78.957031 9.347656 79.585938 8.90625 C 79.722656 8.808594 79.855469 8.714844 79.996094 8.613281 C 80.105469 8.539062 80.210938 8.46875 80.324219 8.390625 Z M 80.324219 8.390625 "/>
</g>
</svg>
