<?xml version="1.0" encoding="UTF-8"?>
<svg xmlns="http://www.w3.org/2000/svg" xmlns:xlink="http://www.w3.org/1999/xlink" width="217px" height="134px" viewBox="0 0 217 134" version="1.1">
<g id="surface1">
<path style=" stroke:none;fill-rule:nonzero;fill:rgb(99.215686%,99.607843%,99.215686%);fill-opacity:1;" d="M 0 0 C 71.609375 0 143.21875 0 217 0 C 217 44.21875 217 88.441406 217 134 C 145.390625 134 73.78125 134 0 134 C 0 89.78125 0 45.558594 0 0 Z M 0 0 "/>
<path style=" stroke:none;fill-rule:nonzero;fill:rgb(40.392157%,67.058824%,96.862745%);fill-opacity:1;" d="M 153.429688 19.105469 C 157.71875 21.675781 160.261719 25.183594 162.222656 29.777344 C 163.242188 37.261719 162.417969 43.390625 158.007812 49.628906 C 153.84375 54.867188 149.097656 59.546875 143.964844 63.808594 C 143.3125 64.378906 142.664062 64.945312 141.996094 65.53125 C 128.777344 77.039062 128.777344 77.039062 120.601562 76.457031 C 119.078125 76.171875 119.078125 76.171875 116.574219 75.152344 C 112.867188 68.398438 115.3125 59.253906 117.160156 52.222656 C 117.980469 49.628906 117.980469 49.628906 119.085938 47.125 C 120.191406 44.71875 120.191406 44.71875 120.410156 42.164062 C 121.425781 35.589844 127.160156 28.304688 132.269531 24.199219 C 138.585938 19.5625 145.539062 16.054688 153.429688 19.105469 Z M 153.429688 19.105469 "/>
<path style=" stroke:none;fill-rule:nonzero;fill:rgb(96.470588%,68.235294%,6.666667%);fill-opacity:1;" d="M 127.816406 11.746094 C 131.042969 14.085938 134.328125 17.164062 135.34375 21.117188 C 135.40625 21.636719 135.472656 22.152344 135.539062 22.6875 C 135.136719 22.964844 134.738281 23.238281 134.328125 23.523438 C 122.984375 31.820312 117 47.128906 114.738281 60.75 C 114.15625 65.835938 114.199219 70.296875 115.875 75.152344 C 106.777344 67.046875 102.550781 52.300781 101.730469 40.386719 C 101.304688 30.957031 101.886719 22.289062 108.242188 14.800781 C 114.0625 8.898438 120.460938 7.671875 127.816406 11.746094 Z M 127.816406 11.746094 "/>
<path style=" stroke:none;fill-rule:nonzero;fill:rgb(81.960784%,32.156863%,83.137255%);fill-opacity:1;" d="M 101.519531 17.902344 C 103.933594 19.144531 103.933594 19.144531 104.5 20.457031 C 104.664062 22.265625 104.300781 23.222656 103.628906 24.902344 C 99.554688 37.773438 103.746094 53.582031 109.214844 65.402344 C 110.902344 68.644531 112.503906 71.21875 115.171875 73.734375 C 114.941406 73.296875 114.707031 72.859375 114.46875 72.40625 C 111.480469 62.976562 115.714844 51.929688 119.386719 43.25 C 119.847656 43.949219 120.3125 44.652344 120.789062 45.375 C 120.386719 46.65625 120.386719 46.65625 119.605469 48.121094 C 115.710938 56.386719 114.492188 66.195312 116.574219 75.152344 C 118.429688 75.386719 120.285156 75.621094 122.195312 75.863281 C 122.195312 76.097656 122.195312 76.332031 122.195312 76.570312 C 113.480469 77.132812 106.773438 72.480469 100.339844 66.917969 C 90.644531 58.257812 81.957031 48.789062 80.515625 35.289062 C 80.273438 29.894531 81.027344 25.65625 84.273438 21.269531 C 89.167969 16.585938 95.222656 15.789062 101.519531 17.902344 Z M 101.519531 17.902344 "/>
<path style=" stroke:none;fill-rule:nonzero;fill:rgb(15.686275%,13.72549%,14.901961%);fill-opacity:1;" d="M 65.3125 83.660156 C 77.25 83.660156 77.25 83.660156 80.058594 86.496094 C 80.398438 88.609375 80.398438 88.609375 80.382812 91.042969 C 80.378906 91.917969 80.375 92.796875 80.375 93.699219 C 80.355469 94.613281 80.339844 95.527344 80.320312 96.46875 C 80.320312 97.382812 80.320312 98.300781 80.320312 99.242188 C 80.253906 106.050781 80.253906 106.050781 78.652344 108.476562 C 74.429688 109.898438 69.765625 109.183594 65.3125 109.183594 C 65.3125 100.761719 65.3125 92.339844 65.3125 83.660156 Z M 65.3125 83.660156 "/>
<path style=" stroke:none;fill-rule:nonzero;fill:rgb(20%,16.470588%,17.647059%);fill-opacity:1;" d="M 191.015625 82.6875 C 191.742188 82.695312 192.464844 82.703125 193.210938 82.714844 C 195.183594 82.945312 196.386719 83.28125 198.039062 84.371094 C 199.097656 86.507812 198.828125 88.703125 198.808594 91.042969 C 198.808594 91.5625 198.808594 92.078125 198.808594 92.613281 C 198.804688 94.265625 198.792969 95.921875 198.785156 97.574219 C 198.78125 98.695312 198.777344 99.816406 198.773438 100.9375 C 198.769531 103.6875 198.753906 106.4375 198.742188 109.183594 C 196.886719 109.183594 195.03125 109.183594 193.121094 109.183594 C 193.121094 101.933594 193.121094 94.679688 193.121094 87.207031 C 191.964844 87.207031 190.804688 87.207031 189.613281 87.207031 C 189.613281 94.460938 189.613281 101.710938 189.613281 109.183594 C 187.757812 109.183594 185.902344 109.183594 183.992188 109.183594 C 183.925781 105.90625 183.875 102.625 183.839844 99.34375 C 183.824219 98.230469 183.804688 97.113281 183.78125 96 C 183.746094 94.394531 183.730469 92.789062 183.71875 91.183594 C 183.703125 90.6875 183.691406 90.1875 183.675781 89.675781 C 183.675781 87.265625 183.832031 86.003906 185.289062 84.054688 C 187.292969 82.597656 188.570312 82.617188 191.015625 82.6875 Z M 191.015625 82.6875 "/>
<path style=" stroke:none;fill-rule:nonzero;fill:rgb(18.823529%,15.686275%,16.862745%);fill-opacity:1;" d="M 46.347656 83.660156 C 48.203125 83.660156 50.058594 83.660156 51.96875 83.660156 C 51.96875 87.171875 51.96875 90.679688 51.96875 94.296875 C 52.429688 94.296875 52.894531 94.296875 53.371094 94.296875 C 53.574219 93.589844 53.574219 93.589844 53.785156 92.871094 C 55.601562 86.652344 55.601562 86.652344 56.882812 83.660156 C 58.503906 83.660156 60.128906 83.660156 61.800781 83.660156 C 61.65625 84.097656 61.511719 84.535156 61.363281 84.988281 C 60.761719 86.898438 60.21875 88.816406 59.691406 90.75 C 59.546875 91.234375 59.398438 91.71875 59.25 92.21875 C 58.007812 98.03125 61.121094 103.871094 63.203125 109.183594 C 61.351562 109.183594 59.496094 109.183594 57.585938 109.183594 C 57.355469 108.527344 57.128906 107.871094 56.890625 107.195312 C 56.585938 106.34375 56.277344 105.496094 55.960938 104.621094 C 55.660156 103.773438 55.359375 102.925781 55.046875 102.054688 C 54.726562 101.367188 54.40625 100.675781 54.074219 99.96875 C 53.378906 99.734375 52.683594 99.5 51.96875 99.257812 C 51.96875 102.535156 51.96875 105.808594 51.96875 109.183594 C 50.113281 109.183594 48.257812 109.183594 46.347656 109.183594 C 46.347656 100.761719 46.347656 92.339844 46.347656 83.660156 Z M 46.347656 83.660156 "/>
<path style=" stroke:none;fill-rule:nonzero;fill:rgb(13.72549%,12.156863%,12.54902%);fill-opacity:1;" d="M 145.367188 83.660156 C 146.992188 83.660156 148.613281 83.660156 150.285156 83.660156 C 150.285156 87.171875 150.285156 90.679688 150.285156 94.296875 C 151.90625 94.296875 153.527344 94.296875 155.199219 94.296875 C 155.199219 90.785156 155.199219 87.277344 155.199219 83.660156 C 156.824219 83.660156 158.445312 83.660156 160.117188 83.660156 C 160.117188 92.085938 160.117188 100.507812 160.117188 109.183594 C 158.496094 109.183594 156.871094 109.183594 155.199219 109.183594 C 155.199219 105.910156 155.199219 102.632812 155.199219 99.257812 C 153.578125 99.257812 151.957031 99.257812 150.285156 99.257812 C 150.285156 102.535156 150.285156 105.808594 150.285156 109.183594 C 148.664062 109.183594 147.039062 109.183594 145.367188 109.183594 C 145.367188 100.761719 145.367188 92.339844 145.367188 83.660156 Z M 145.367188 83.660156 "/>
<path style=" stroke:none;fill-rule:nonzero;fill:rgb(14.509804%,13.333333%,13.333333%);fill-opacity:1;" d="M 101.125 82.6875 C 101.851562 82.679688 102.574219 82.675781 103.320312 82.667969 C 105.691406 83 106.511719 83.324219 108.148438 85.078125 C 108.398438 87.003906 108.476562 88.640625 108.421875 90.558594 C 108.417969 91.09375 108.414062 91.625 108.410156 92.171875 C 108.394531 93.871094 108.359375 95.566406 108.324219 97.265625 C 108.308594 98.417969 108.296875 99.570312 108.285156 100.71875 C 108.253906 103.542969 108.207031 106.363281 108.148438 109.183594 C 106.527344 109.183594 104.90625 109.183594 103.234375 109.183594 C 103.234375 101.933594 103.234375 94.679688 103.234375 87.207031 C 101.84375 87.207031 100.453125 87.207031 99.019531 87.207031 C 99.019531 94.460938 99.019531 101.710938 99.019531 109.183594 C 97.398438 109.183594 95.773438 109.183594 94.105469 109.183594 C 94.035156 105.792969 93.984375 102.398438 93.949219 99.003906 C 93.933594 97.847656 93.914062 96.695312 93.890625 95.539062 C 93.859375 93.878906 93.839844 92.21875 93.828125 90.558594 C 93.808594 89.785156 93.808594 89.785156 93.785156 88.996094 C 93.785156 85.421875 93.785156 85.421875 95.398438 83.691406 C 97.386719 82.71875 98.921875 82.667969 101.125 82.6875 Z M 101.125 82.6875 "/>
<path style=" stroke:none;fill-rule:nonzero;fill:rgb(17.254902%,14.901961%,14.901961%);fill-opacity:1;" d="M 137.644531 82.953125 C 139.882812 84.105469 139.882812 84.105469 141.15625 85.789062 C 141.375 88.09375 141.375 88.09375 141.15625 90.042969 C 139.53125 90.042969 137.910156 90.042969 136.238281 90.042969 C 136.007812 89.339844 135.777344 88.636719 135.539062 87.914062 C 134.378906 87.679688 133.21875 87.449219 132.027344 87.207031 C 132.027344 89.3125 132.027344 91.417969 132.027344 93.585938 C 133.011719 93.542969 133.996094 93.5 135.011719 93.453125 C 136.964844 93.367188 138.144531 93.496094 139.941406 94.304688 C 141.792969 96.453125 141.535156 98.683594 141.460938 101.386719 C 141.46875 101.898438 141.472656 102.414062 141.476562 102.941406 C 141.453125 104.984375 141.378906 106.648438 140.390625 108.460938 C 138.308594 109.585938 136.472656 109.464844 134.132812 109.449219 C 133.261719 109.457031 132.394531 109.460938 131.5 109.46875 C 129.21875 109.183594 129.21875 109.183594 127.863281 108.289062 C 126.503906 106.070312 126.984375 103.9375 127.109375 101.386719 C 128.730469 101.386719 130.355469 101.386719 132.027344 101.386719 C 132.257812 102.554688 132.488281 103.726562 132.726562 104.929688 C 133.886719 105.164062 135.046875 105.398438 136.238281 105.640625 C 136.238281 103.300781 136.238281 100.960938 136.238281 98.550781 C 133.597656 98.652344 133.597656 98.652344 130.957031 98.757812 C 129.21875 98.550781 129.21875 98.550781 127.953125 97.832031 C 126.617188 95.597656 126.777344 93.285156 126.804688 90.75 C 126.789062 90.238281 126.773438 89.722656 126.761719 89.195312 C 126.761719 86.898438 126.785156 85.460938 128.296875 83.679688 C 131.335938 82.316406 134.394531 82.519531 137.644531 82.953125 Z M 137.644531 82.953125 "/>
<path style=" stroke:none;fill-rule:nonzero;fill:rgb(16.470588%,15.294118%,16.862745%);fill-opacity:1;" d="M 112.363281 83.660156 C 116.070312 83.660156 119.777344 83.660156 123.597656 83.660156 C 123.597656 85.066406 123.597656 86.46875 123.597656 87.914062 C 121.746094 87.914062 119.890625 87.914062 117.980469 87.914062 C 117.980469 90.019531 117.980469 92.125 117.980469 94.296875 C 119.835938 94.296875 121.6875 94.296875 123.597656 94.296875 C 123.597656 95.699219 123.597656 97.105469 123.597656 98.550781 C 121.746094 98.550781 119.890625 98.550781 117.980469 98.550781 C 117.980469 100.421875 117.980469 102.292969 117.980469 104.222656 C 119.835938 104.222656 121.6875 104.222656 123.597656 104.222656 C 123.597656 105.859375 123.597656 107.496094 123.597656 109.183594 C 119.890625 109.183594 116.183594 109.183594 112.363281 109.183594 C 112.363281 100.761719 112.363281 92.339844 112.363281 83.660156 Z M 112.363281 83.660156 "/>
<path style=" stroke:none;fill-rule:nonzero;fill:rgb(16.470588%,17.647059%,20.392157%);fill-opacity:1;" d="M 84.273438 83.660156 C 86.125 83.660156 87.980469 83.660156 89.890625 83.660156 C 89.890625 92.085938 89.890625 100.507812 89.890625 109.183594 C 88.035156 109.183594 86.183594 109.183594 84.273438 109.183594 C 84.273438 100.761719 84.273438 92.339844 84.273438 83.660156 Z M 84.273438 83.660156 "/>
<path style=" stroke:none;fill-rule:nonzero;fill:rgb(13.72549%,12.156863%,12.54902%);fill-opacity:1;" d="M 174.863281 83.660156 C 176.484375 83.660156 178.109375 83.660156 179.78125 83.660156 C 179.78125 92.085938 179.78125 100.507812 179.78125 109.183594 C 178.15625 109.183594 176.535156 109.183594 174.863281 109.183594 C 174.863281 100.761719 174.863281 92.339844 174.863281 83.660156 Z M 174.863281 83.660156 "/>
<path style=" stroke:none;fill-rule:nonzero;fill:rgb(88.627451%,93.72549%,94.901961%);fill-opacity:1;" d="M 70.226562 87.207031 C 71.617188 87.207031 73.007812 87.207031 74.441406 87.207031 C 74.441406 93.289062 74.441406 99.371094 74.441406 105.640625 C 73.050781 105.640625 71.660156 105.640625 70.226562 105.640625 C 70.226562 99.558594 70.226562 93.472656 70.226562 87.207031 Z M 70.226562 87.207031 "/>
<path style=" stroke:none;fill-rule:nonzero;fill:rgb(72.156863%,53.333333%,94.117647%);fill-opacity:1;" d="M 119.386719 43.25 C 119.847656 43.949219 120.3125 44.652344 120.789062 45.375 C 120.386719 46.65625 120.386719 46.65625 119.605469 48.121094 C 115.710938 56.386719 114.492188 66.195312 116.574219 75.152344 C 118.429688 75.386719 120.285156 75.621094 122.195312 75.863281 C 122.195312 76.097656 122.195312 76.332031 122.195312 76.570312 C 114.398438 77.074219 108.589844 73.503906 102.53125 68.773438 C 102.066406 68.070312 101.605469 67.367188 101.125 66.644531 C 104.175781 68.09375 106.914062 69.988281 109.726562 71.851562 C 111.507812 72.933594 113.21875 73.730469 115.171875 74.445312 C 114.824219 73.609375 114.824219 73.609375 114.46875 72.761719 C 111.78125 62.925781 115.566406 52.289062 119.386719 43.25 Z M 119.386719 43.25 "/>
<path style=" stroke:none;fill-rule:nonzero;fill:rgb(67.058824%,58.823529%,80.784314%);fill-opacity:1;" d="M 119.386719 43.25 C 119.847656 43.949219 120.3125 44.652344 120.789062 45.375 C 120.15625 46.804688 119.515625 48.226562 118.839844 49.636719 C 116.25 56.035156 114.964844 63.320312 114.46875 70.191406 C 114.238281 70.191406 114.003906 70.191406 113.765625 70.191406 C 113.167969 60.695312 115.730469 51.890625 119.386719 43.25 Z M 119.386719 43.25 "/>
<path style=" stroke:none;fill-rule:nonzero;fill:rgb(20.392157%,17.254902%,17.254902%);fill-opacity:1;" d="M 167.445312 104.089844 C 169.246094 104.222656 169.246094 104.222656 170.652344 105.640625 C 170.273438 108.148438 170.273438 108.148438 169.246094 109.183594 C 167.492188 109.273438 167.492188 109.273438 165.734375 109.183594 C 165.03125 108.476562 165.03125 108.476562 164.945312 106.703125 C 165.0625 104.34375 165.117188 104.269531 167.445312 104.089844 Z M 167.445312 104.089844 "/>
<path style=" stroke:none;fill-rule:nonzero;fill:rgb(97.647059%,59.607843%,9.803922%);fill-opacity:1;" d="M 112.363281 11.34375 C 112.824219 11.578125 113.289062 11.8125 113.765625 12.054688 C 113.105469 12.695312 113.105469 12.695312 112.433594 13.347656 C 111.859375 13.914062 111.285156 14.480469 110.695312 15.066406 C 110.125 15.625 109.554688 16.183594 108.964844 16.761719 C 107.617188 18.246094 106.804688 19.429688 106.042969 21.269531 C 105.578125 21.269531 105.113281 21.269531 104.636719 21.269531 C 105.691406 17.480469 108.269531 14.792969 110.957031 12.054688 C 111.421875 11.820312 111.886719 11.585938 112.363281 11.34375 Z M 112.363281 11.34375 "/>
<path style=" stroke:none;fill-rule:nonzero;fill:rgb(54.117647%,60.392157%,90.588235%);fill-opacity:1;" d="M 119.386719 43.25 C 119.847656 43.949219 120.3125 44.652344 120.789062 45.375 C 120.3125 46.980469 120.3125 46.980469 119.472656 48.699219 C 119.0625 49.558594 119.0625 49.558594 118.644531 50.4375 C 118.316406 51.089844 118.316406 51.089844 117.980469 51.757812 C 117.191406 49.414062 117.351562 48.175781 118.289062 45.90625 C 118.488281 45.40625 118.691406 44.90625 118.898438 44.390625 C 119.058594 44.011719 119.21875 43.636719 119.386719 43.25 Z M 119.386719 43.25 "/>
</g>
</svg>
